# xmcd
#
# Track frame offsets:
#	150
#	22922
#	33235
#	47747
#	61882
#	77045
#	89795
#	102670
#	115037
#	133680
#	152667
#	179277
#	197405
#	217920
#
# Disc length: 3224
#
# Revision: 3
# Processed by: cddbd v1.5.1PL0 Copyright (c) Steve Scherf et al.
# Submitted via: CDmax 2.0
# Normalized: r1:TSWAP
#
DISCID=b40c960e
DTITLE=Various Artist - Martin Scorsese Presents The Blues
DYEAR=2003
DGENRE=Blues
TTITLE0=Son House - Death Letter Blues
TTITLE1=Robert Johnson - Love In Vain
TTITLE2=Bessie Smith and Her Band - Muddy Water (A Mississippi Moan)
TTITLE3=Handy's Memphis Blues Band - St. Louis Blues
TTITLE4=Blind Willie Johnson - Dark Was The Night - Cold Was The Ground
TTITLE5=Jackie Brenston - Rocket 88
TTITLE6=Muddy Waters - (I'm Your) Hoochie Coochie Man
TTITLE7=Howlin' Wolf - Spoonful
TTITLE8=Bobby Blue Band - Stormy Monday Blues
TTITLE9=Otis Spann - T'Ain't Nobody's Bizness
TTITLE10=John Mayall's Bluesbreakers with Eric Clapton - Have You Heard
TTITLE11=B. B. King - The Thrill Is Gone
TTITLE12=Cassandra Wilson - Vietnam Blues
TTITLE13=Chuck D. and The Electric Mudkats - Mannish Boy
EXTD=
EXTT0=
EXTT1=
EXTT2=
EXTT3=
EXTT4=
EXTT5=
EXTT6=
EXTT7=
EXTT8=
EXTT9=
EXTT10=
EXTT11=
EXTT12=
EXTT13=
PLAYORDER=
